Coordinates
version=1
nRows=13
nColumns=40
inDegrees=yes

Units are S.I. units (second, meters, Newtons, ...)
Angles are in degrees.

endheader
time	pelvis_tilt	pelvis_list	pelvis_rotation	pelvis_tx	pelvis_ty	pelvis_tz	hip_flexion_r	hip_adduction_r	hip_rotation_r	knee_angle_r	knee_angle_r_beta	ankle_angle_r	subtalar_angle_r	mtp_angle_r	hip_flexion_l	hip_adduction_l	hip_rotation_l	knee_angle_l	knee_angle_l_beta	ankle_angle_l	subtalar_angle_l	mtp_angle_l	lumbar_extension	lumbar_bending	lumbar_rotation	arm_flex_r	arm_add_r	arm_rot_r	elbow_flex_r	pro_sup_r	wrist_flex_r	wrist_dev_r	arm_flex_l	arm_add_l	arm_rot_l	elbow_flex_l	pro_sup_l	wrist_flex_l	wrist_dev_l
     34.65250000	     -6.03982498	     -5.68698837	     -0.21644683	      1.02972748	      0.91219307	      0.47425323	      3.07900054	      0.36315432	    -10.92593733	     30.10597402	     30.10597402	     15.10157169	     -3.77803834	    -13.29944383	     32.22923763	     -8.42081850	     -1.16421599	     29.01189762	     29.01189762	      6.07610457	    -15.79935842	      6.43267924	     -9.53341164	      4.81240927	      6.43726915	     45.09562176	    -14.78210036	      5.27011829	    119.71150764	     43.48596422	      0.00000000	      0.00000000	    -17.24949794	     -6.80752124	      5.56820952	     24.93314193	     44.87970933	      0.00000000	      0.00000000
     34.66428571	     -6.04709859	     -5.35733980	     -0.30632149	      1.02885934	      0.91353954	      0.47164056	      5.20360035	     -0.60704828	    -10.63331391	     34.66095635	     34.66095635	     13.42873552	     -6.03447368	    -13.77531345	     31.47429231	     -8.03770525	     -1.70815881	     28.75164889	     28.75164889	      6.69250051	    -15.49473638	      6.06575016	     -9.60725387	      4.41338222	      5.81034173	     44.08280400	    -14.68483072	      5.66709667	    120.24476092	     43.46247119	      0.00000000	      0.00000000	    -16.01078297	     -6.88591381	      5.53958345	     25.36390419	     44.91392685	      0.00000000	      0.00000000
     34.67607143	     -6.19090914	     -5.05907958	     -0.38814621	      1.02765369	      0.91468597	      0.46921885	      7.71402531	     -1.44541993	    -10.17513072	     39.40295274	     39.40295274	     11.19426533	     -8.91431687	    -14.06327605	     30.85759903	     -7.68990641	     -2.27510229	     28.40005459	     28.40005459	      7.13500677	    -15.15185950	      5.67818466	     -9.55326046	      4.03991744	      5.28038160	     42.78341697	    -14.81962046	      6.06204825	    120.97167295	     43.43174915	      0.00000000	      0.00000000	    -14.65008411	     -7.04130718	      5.44262001	     25.89636147	     44.96103297	      0.00000000	      0.00000000
     34.68785714	     -6.31350356	     -4.95369853	     -0.46721593	      1.02629871	      0.91581552	      0.46710727	     10.22858527	     -1.84597454	     -9.46388026	     43.81987645	     43.81987645	      7.68710209	    -13.17029598	    -15.93851198	     30.16310443	     -7.53787235	     -2.68713422	     27.88177383	     27.88177383	      7.18045932	    -14.88265275	      4.10052644	     -9.61661995	      3.85611482	      5.69040208	     40.58605871	    -15.93858424	      5.58940717	    123.25732065	     43.46597840	      0.00000000	      0.00000000	    -12.67296325	     -7.22594078	      4.82025493	     26.45912871	     45.16162602	      0.00000000	      0.00000000
     34.69964286	     -6.36707790	     -4.58098976	     -0.54450864	      1.02471044	      0.91687326	      0.46487674	     12.92084595	     -2.78293566	     -9.21891002	     48.60750185	     48.60750185	      5.17447733	    -15.44416049	    -15.16101946	     29.40831944	     -7.10291045	     -3.24305985	     27.42267192	     27.42267192	      7.62249511	    -14.48046792	      3.76362685	     -9.72578977	      3.41907677	      5.03042067	     39.16263572	    -15.90093067	      6.02761726	    123.33637418	     43.45146941	      0.00000000	      0.00000000	    -11.12871049	     -7.46525312	      4.71749761	     27.05948499	     45.20961373	      0.00000000	      0.00000000
     34.71142857	     -6.38313444	     -4.26287512	     -0.58432914	      1.02293087	      0.91789935	      0.46274452	     15.63592838	     -3.62594360	     -9.00312605	     53.20337818	     53.20337818	      2.70835900	    -17.41542571	    -13.81830566	     28.67390741	     -6.71181428	     -3.72762324	     27.00701780	     27.00701780	      7.98029216	    -14.08383839	      3.39704136	     -9.90547079	      3.06462227	      4.45239379	     37.55209816	    -15.96513626	      6.42033790	    123.37363526	     43.43733478	      0.00000000	      0.00000000	     -9.42622666	     -7.76634775	      4.57317013	     27.78943095	     45.26474378	      0.00000000	      0.00000000
     34.72321429	     -6.46001095	     -4.11205185	     -0.64825243	      1.02103095	      0.91873615	      0.46105187	     18.77216915	     -4.00894917	     -8.43644202	     58.20138161	     58.20138161	      3.37500951	    -17.52986117	     -3.48293867	     27.94735299	     -6.52709996	     -4.18093994	     26.40733511	     26.40733511	      7.73310107	    -13.84220024	      1.55867539	    -10.05779082	      2.85551683	      4.64584216	     35.07977441	    -16.73871737	      5.82560255	    124.38194316	     43.50101419	      0.00000000	      0.00000000	     -7.44182027	     -8.08698072	      3.77098908	     28.87107979	     45.45987778	      0.00000000	      0.00000000
     34.73500000	     -6.38352122	     -3.79885434	     -0.66954316	      1.01909795	      0.91966511	      0.45901926	     21.36601265	     -4.82734902	     -8.28007796	     62.07649455	     62.07649455	      1.38063386	    -18.43253182	     -2.53768950	     27.15588450	     -6.11190012	     -4.57505464	     26.03113401	     26.03113401	      8.12830060	    -13.51046105	      1.28919295	    -10.36760879	      2.56964494	      4.00168088	     33.32944595	    -16.68792283	      6.25728206	    123.83472181	     43.50165139	      0.00000000	      0.00000000	     -5.60835437	     -8.41448246	      3.66926817	     29.58303950	     45.50732886	      0.00000000	      0.00000000
     34.74678571	     -6.35064215	     -3.64842577	     -0.68470840	      1.01710657	      0.92052980	      0.45740674	     24.23493594	     -5.12704332	     -7.76343783	     65.98718366	     65.98718366	      1.88988630	    -18.44150686	      5.27601734	     26.39079134	     -5.90018141	     -4.92440513	     25.55661324	     25.55661324	      8.11516500	    -13.21708028	      0.08359996	    -10.61697927	      2.40540844	      3.92978941	     30.87334835	    -17.07171176	      5.71360364	    123.39972840	     43.58499882	      0.00000000	      0.00000000	     -3.56210200	     -8.76060066	      3.32385638	     30.68370555	     45.61089871	      0.00000000	      0.00000000
     34.75857143	     -6.24798424	     -3.43162046	     -0.67237387	      1.01516773	      0.92147041	      0.45564484	     26.68649720	     -5.63969195	     -7.46482472	     68.93478483	     68.93478483	      0.62609293	    -18.70754416	      5.81423885	     25.58178395	     -5.57893342	     -5.21838066	     25.16260242	     25.16260242	      8.47019300	    -12.86685255	     -0.17737547	    -10.92968947	      2.24132995	      3.37743677	     28.79247558	    -17.13109217	      6.05869504	    122.23813250	     43.60951003	      0.00000000	      0.00000000	     -1.57319778	     -9.17032776	      3.24642558	     31.45693467	     45.65566082	      0.00000000	      0.00000000
     34.77035714	     -6.09453377	     -3.33321030	     -0.64975623	      1.01327254	      0.92247540	      0.45408027	     28.96876586	     -5.89224939	     -7.13400084	     71.34574075	     71.34574075	     -0.24213542	    -18.78923486	      6.19370794	     24.75940442	     -5.38481401	     -5.42938826	     24.84123808	     24.84123808	      8.89340908	    -12.54507254	     -0.47598459	    -11.32986877	      2.20572832	      2.86824947	     26.67270705	    -17.12346004	      6.26689408	    120.91073216	     43.64120348	      0.00000000	      0.00000000	      0.51050482	     -9.60561744	      3.17427075	     32.31166993	     45.69926690	      0.00000000	      0.00000000
     34.78214286	     -5.95816963	     -3.29035614	     -0.59866925	      1.01142061	      0.92352751	      0.45260909	     31.18297709	     -5.96620059	     -6.73720545	     73.26163550	     73.26163550	     -0.76393548	    -18.67354894	      6.69494458	     23.93145225	     -5.25760804	     -5.64607784	     24.44710761	     24.44710761	      9.15675110	    -12.10291983	     -0.91895498	    -11.61136030	      2.24820253	      2.70396566	     24.27886513	    -17.35960409	      5.81352281	    118.62895594	     43.73104041	      0.00000000	      0.00000000	      2.71571439	    -10.02065515	      3.19147474	     33.31886907	     45.73430052	      0.00000000	      0.00000000
     34.79392857	     -5.78172368	     -3.32090484	     -0.55035408	      1.00968884	      0.92459432	      0.45132471	     33.18710799	     -5.87879452	     -6.35095037	     74.59292848	     74.59292848	     -1.11968303	    -18.41284831	      6.59470763	     23.08838888	     -5.21455459	     -5.81306492	     24.12089498	     24.12089498	      9.46276510	    -11.73150084	     -1.42695754	    -11.95073171	      2.38414204	      2.47159273	     21.93228262	    -17.21172534	      5.21245714	    116.25830498	     43.83131480	      0.00000000	      0.00000000	      4.95635644	    -10.46877098	      3.36954479	     34.29851834	     45.74981489	      0.00000000	      0.00000000
